<svg width="21" height="21" viewBox="0 0 21 21" fill="none" xmlns="http://www.w3.org/2000/svg">
<g clip-path="url(#clip0_6511_2376)">
<path fill-rule="evenodd" clip-rule="evenodd" d="M9.02003 10.6445V17.8058C9.02003 17.9026 9.10068 17.9993 9.21358 17.9993H11.8749C11.9716 17.9993 12.0684 17.9187 12.0684 17.8058V10.5155H13.9878C14.0846 10.5155 14.1652 10.4348 14.1813 10.338L14.3426 8.16063C14.3587 8.04773 14.262 7.95095 14.1491 7.95095H12.0523V6.40256C12.0523 6.0316 12.3426 5.74127 12.7136 5.74127H14.1975C14.2942 5.74127 14.391 5.66063 14.391 5.54773V3.37031C14.391 3.27353 14.3104 3.17676 14.1975 3.17676H11.6813C10.2136 3.17676 9.02003 4.37031 9.02003 5.83805V7.95095H7.69745C7.60068 7.95095 7.50391 8.0316 7.50391 8.1445V10.338C7.50391 10.4348 7.58455 10.5316 7.69745 10.5316H9.02003V10.6445Z" fill="#3BB77E"/>
</g>
<defs>
<clipPath id="clip0_6511_2376">
<rect width="20" height="20" fill="white" transform="translate(0.9375 0.580078)"/>
</clipPath>
</defs>
</svg>
