<svg width="21" height="21" viewBox="0 0 21 21" fill="none" xmlns="http://www.w3.org/2000/svg">
<g clip-path="url(#clip0_6511_2385)">
<path d="M14.4031 5.99935C13.9031 5.99935 13.4999 6.40258 13.4999 6.90258C13.4999 7.40258 13.9031 7.80581 14.4031 7.80581C14.9031 7.80581 15.3063 7.40258 15.3063 6.90258C15.3063 6.40258 14.9031 5.99935 14.4031 5.99935ZM10.3708 7.16064C8.27407 7.16064 6.56439 8.87032 6.56439 10.9671C6.56439 13.0639 8.27407 14.7735 10.3708 14.7735C12.4676 14.7735 14.1773 13.0639 14.1773 10.9671C14.1773 8.87032 12.4676 7.16064 10.3708 7.16064ZM10.3708 13.4187C9.016 13.4187 7.93536 12.3219 7.93536 10.9832C7.93536 9.62839 9.03213 8.54774 10.3708 8.54774C11.7257 8.54774 12.8063 9.64452 12.8063 10.9832C12.8063 12.3219 11.7096 13.4187 10.3708 13.4187ZM18.0644 7.80581C18.0644 5.24129 15.9837 3.16064 13.4192 3.16064H7.27407C4.70955 3.16064 2.62891 5.24129 2.62891 7.80581V13.951C2.62891 16.5155 4.70955 18.5961 7.27407 18.5961H13.4031C15.9676 18.5961 18.0483 16.5155 18.0483 13.951V7.80581H18.0644ZM16.5967 13.9348C16.5967 15.6929 15.1612 17.1284 13.4031 17.1284H7.27407C5.516 17.1284 4.08052 15.6929 4.08052 13.9348V7.80581C4.08052 6.03161 5.49987 4.61226 7.27407 4.61226H13.4031C15.1612 4.61226 16.5967 6.04774 16.5967 7.80581V13.9348Z" fill="#3BB77E"/>
</g>
<defs>
<clipPath id="clip0_6511_2385">
<rect width="20" height="20" fill="white" transform="translate(0.339844 0.580078)"/>
</clipPath>
</defs>
</svg>
