<svg width="21" height="21" viewBox="0 0 21 21" fill="none" xmlns="http://www.w3.org/2000/svg">
<path d="M17.7852 6.48351C17.3335 6.69319 16.8174 6.82222 16.3335 6.90286C16.5755 6.87061 16.9142 6.43512 17.0594 6.27383C17.269 6.01577 17.4465 5.70932 17.5432 5.38673C17.5594 5.35448 17.5594 5.32222 17.5432 5.30609C17.511 5.28996 17.4948 5.30609 17.4626 5.30609C16.9142 5.59641 16.3497 5.82222 15.7368 5.96738C15.6884 5.98351 15.6561 5.96738 15.6239 5.93512C15.5755 5.87061 15.5271 5.82222 15.4787 5.77383C15.2206 5.56415 14.9465 5.38673 14.64 5.2577C14.2368 5.09641 13.7852 5.01577 13.3497 5.04803C12.9303 5.08028 12.511 5.19319 12.14 5.38673C11.769 5.58028 11.4303 5.85448 11.1561 6.19319C10.8819 6.5319 10.6723 6.93512 10.5755 7.37061C10.4787 7.78996 10.4787 8.19319 10.5432 8.61254C10.5594 8.67706 10.5432 8.69319 10.4787 8.67706C8.09161 8.33835 6.12387 7.49964 4.5271 5.67706C4.46258 5.59641 4.41419 5.59641 4.36581 5.67706C3.67226 6.72544 4.01097 8.40286 4.88194 9.24157C4.99484 9.35448 5.12387 9.46738 5.2529 9.56415C5.20452 9.58028 4.62387 9.51577 4.10774 9.24157C4.04323 9.19319 4.01097 9.22544 3.99484 9.30609C3.99484 9.41899 3.99484 9.51577 4.01097 9.6448C4.14 10.7093 4.88194 11.6932 5.88194 12.0642C5.99484 12.1125 6.14 12.1609 6.26903 12.1771C6.04323 12.2254 5.80129 12.2577 5.14 12.2093C5.05935 12.1932 5.0271 12.2416 5.05935 12.3061C5.54323 13.6609 6.60774 14.0642 7.41419 14.29C7.5271 14.3061 7.62387 14.3061 7.73677 14.3383C7.73677 14.3545 7.72064 14.3545 7.72064 14.3545C7.46258 14.7577 6.54323 15.0642 6.10774 15.2093C5.33355 15.4835 4.47871 15.5964 3.65613 15.5158C3.5271 15.4996 3.49484 15.4996 3.46258 15.5158C3.43032 15.5319 3.46258 15.5642 3.49484 15.5964C3.65613 15.7093 3.83355 15.8061 4.01097 15.9029C4.5271 16.1771 5.07548 16.4029 5.64 16.5642C8.57548 17.3706 11.8981 16.7738 14.1077 14.5803C15.8335 12.8706 16.4465 10.4996 16.4465 8.11254C16.4465 8.01577 16.5594 7.96738 16.6239 7.91899C17.0755 7.58028 17.4303 7.17706 17.769 6.72544C17.8497 6.62867 17.8335 6.5319 17.8335 6.49964V6.48351C17.8335 6.45125 17.8497 6.45125 17.7852 6.48351Z" fill="#3BB77E"/>
<path fill-rule="evenodd" clip-rule="evenodd" d="M7.72058 16.8704C7.76896 16.8704 8.93025 16.8704 7.72058 16.8704C7.70445 16.8704 7.88187 16.8704 7.72058 16.8704ZM7.72058 16.8704C7.47864 16.8704 7.70445 16.8704 7.72058 16.8704V16.8704ZM8.20445 16.8865C8.20445 16.8543 8.46251 16.8865 8.20445 16.8865C8.20445 16.8704 8.23671 16.8865 8.20445 16.8865ZM13.3012 5.08008C13.2851 5.09621 13.269 5.09621 13.2367 5.08008C13.2528 5.08008 13.2851 5.08008 13.3012 5.08008Z" fill="white"/>
</svg>
